<mxfile host="app.diagrams.net" modified="2020-05-12T03:54:53.228Z" agent="5.0 (X11)" etag="vQsNLQKb4l1cx1dVxh2U" version="13.0.9" type="github">
  <diagram id="C5RBs43oDa-KdzZeNtuy" name="Page-1">
    <mxGraphModel dx="1197" dy="715" grid="1" gridSize="10" guides="1" tooltips="1" connect="1" arrows="1" fold="1" page="1" pageScale="1" pageWidth="827" pageHeight="1169" math="0" shadow="0">
      <root>
        <mxCell id="WIyWlLk6GJQsqaUBKTNV-0" />
        <mxCell id="WIyWlLk6GJQsqaUBKTNV-1" parent="WIyWlLk6GJQsqaUBKTNV-0" />
        <mxCell id="MfrIPXdbmn4lJZThsnk2-32" value="" style="edgeStyle=orthogonalEdgeStyle;rounded=0;orthogonalLoop=1;jettySize=auto;html=1;" parent="WIyWlLk6GJQsqaUBKTNV-1" source="WIyWlLk6GJQsqaUBKTNV-3" target="WIyWlLk6GJQsqaUBKTNV-6" edge="1">
          <mxGeometry relative="1" as="geometry" />
        </mxCell>
        <mxCell id="WIyWlLk6GJQsqaUBKTNV-3" value="创建外发订单" style="rounded=1;whiteSpace=wrap;html=1;fontSize=12;glass=0;strokeWidth=1;shadow=0;" parent="WIyWlLk6GJQsqaUBKTNV-1" vertex="1">
          <mxGeometry x="100" y="140" width="120" height="40" as="geometry" />
        </mxCell>
        <mxCell id="WIyWlLk6GJQsqaUBKTNV-5" value="No" style="edgeStyle=orthogonalEdgeStyle;rounded=0;html=1;jettySize=auto;orthogonalLoop=1;fontSize=11;endArrow=block;endFill=0;endSize=8;strokeWidth=1;shadow=0;labelBackgroundColor=none;" parent="WIyWlLk6GJQsqaUBKTNV-1" source="WIyWlLk6GJQsqaUBKTNV-6" target="WIyWlLk6GJQsqaUBKTNV-7" edge="1">
          <mxGeometry y="10" relative="1" as="geometry">
            <mxPoint as="offset" />
          </mxGeometry>
        </mxCell>
        <mxCell id="WIyWlLk6GJQsqaUBKTNV-6" value="弹窗里信息完整?" style="rhombus;whiteSpace=wrap;html=1;shadow=0;fontFamily=Helvetica;fontSize=12;align=center;strokeWidth=1;spacing=6;spacingTop=-4;" parent="WIyWlLk6GJQsqaUBKTNV-1" vertex="1">
          <mxGeometry x="110" y="220" width="100" height="80" as="geometry" />
        </mxCell>
        <mxCell id="WIyWlLk6GJQsqaUBKTNV-7" value="无法创建" style="rounded=1;whiteSpace=wrap;html=1;fontSize=12;glass=0;strokeWidth=1;shadow=0;" parent="WIyWlLk6GJQsqaUBKTNV-1" vertex="1">
          <mxGeometry x="275" y="240" width="120" height="40" as="geometry" />
        </mxCell>
        <mxCell id="MfrIPXdbmn4lJZThsnk2-5" value="" style="edgeStyle=orthogonalEdgeStyle;rounded=0;orthogonalLoop=1;jettySize=auto;html=1;" parent="WIyWlLk6GJQsqaUBKTNV-1" source="MfrIPXdbmn4lJZThsnk2-9" target="MfrIPXdbmn4lJZThsnk2-3" edge="1">
          <mxGeometry relative="1" as="geometry" />
        </mxCell>
        <mxCell id="MfrIPXdbmn4lJZThsnk2-1" value="点击创建" style="rounded=1;whiteSpace=wrap;html=1;fontSize=12;glass=0;strokeWidth=1;shadow=0;" parent="WIyWlLk6GJQsqaUBKTNV-1" vertex="1">
          <mxGeometry x="100" y="340" width="120" height="40" as="geometry" />
        </mxCell>
        <mxCell id="MfrIPXdbmn4lJZThsnk2-8" value="" style="edgeStyle=orthogonalEdgeStyle;rounded=0;orthogonalLoop=1;jettySize=auto;html=1;" parent="WIyWlLk6GJQsqaUBKTNV-1" source="MfrIPXdbmn4lJZThsnk2-3" target="MfrIPXdbmn4lJZThsnk2-7" edge="1">
          <mxGeometry relative="1" as="geometry" />
        </mxCell>
        <mxCell id="MfrIPXdbmn4lJZThsnk2-11" value="" style="edgeStyle=orthogonalEdgeStyle;rounded=0;orthogonalLoop=1;jettySize=auto;html=1;" parent="WIyWlLk6GJQsqaUBKTNV-1" source="MfrIPXdbmn4lJZThsnk2-3" target="MfrIPXdbmn4lJZThsnk2-6" edge="1">
          <mxGeometry relative="1" as="geometry" />
        </mxCell>
        <mxCell id="MfrIPXdbmn4lJZThsnk2-3" value="发送成功？" style="rhombus;whiteSpace=wrap;html=1;shadow=0;fontFamily=Helvetica;fontSize=12;align=center;strokeWidth=1;spacing=6;spacingTop=-4;" parent="WIyWlLk6GJQsqaUBKTNV-1" vertex="1">
          <mxGeometry x="110" y="480" width="100" height="80" as="geometry" />
        </mxCell>
        <mxCell id="MfrIPXdbmn4lJZThsnk2-6" value="提示原因" style="rounded=1;whiteSpace=wrap;html=1;fontSize=12;glass=0;strokeWidth=1;shadow=0;" parent="WIyWlLk6GJQsqaUBKTNV-1" vertex="1">
          <mxGeometry x="260" y="500" width="120" height="40" as="geometry" />
        </mxCell>
        <mxCell id="MfrIPXdbmn4lJZThsnk2-18" value="" style="edgeStyle=orthogonalEdgeStyle;rounded=0;orthogonalLoop=1;jettySize=auto;html=1;" parent="WIyWlLk6GJQsqaUBKTNV-1" source="MfrIPXdbmn4lJZThsnk2-15" target="MfrIPXdbmn4lJZThsnk2-17" edge="1">
          <mxGeometry relative="1" as="geometry" />
        </mxCell>
        <mxCell id="MfrIPXdbmn4lJZThsnk2-7" value="创建任务状态弹窗" style="rounded=1;whiteSpace=wrap;html=1;fontSize=12;glass=0;strokeWidth=1;shadow=0;" parent="WIyWlLk6GJQsqaUBKTNV-1" vertex="1">
          <mxGeometry x="100" y="605" width="120" height="40" as="geometry" />
        </mxCell>
        <mxCell id="MfrIPXdbmn4lJZThsnk2-13" value="No" style="text;html=1;align=center;verticalAlign=middle;resizable=0;points=[];autosize=1;" parent="WIyWlLk6GJQsqaUBKTNV-1" vertex="1">
          <mxGeometry x="215" y="500" width="30" height="20" as="geometry" />
        </mxCell>
        <mxCell id="MfrIPXdbmn4lJZThsnk2-9" value="发送消息到rabbitMQ" style="rounded=1;whiteSpace=wrap;html=1;fontSize=12;glass=0;strokeWidth=1;shadow=0;" parent="WIyWlLk6GJQsqaUBKTNV-1" vertex="1">
          <mxGeometry x="100" y="410" width="120" height="40" as="geometry" />
        </mxCell>
        <mxCell id="MfrIPXdbmn4lJZThsnk2-14" value="" style="edgeStyle=orthogonalEdgeStyle;rounded=0;orthogonalLoop=1;jettySize=auto;html=1;" parent="WIyWlLk6GJQsqaUBKTNV-1" source="MfrIPXdbmn4lJZThsnk2-1" target="MfrIPXdbmn4lJZThsnk2-9" edge="1">
          <mxGeometry relative="1" as="geometry">
            <mxPoint x="160" y="320" as="sourcePoint" />
            <mxPoint x="160" y="510" as="targetPoint" />
          </mxGeometry>
        </mxCell>
        <mxCell id="MfrIPXdbmn4lJZThsnk2-21" value="" style="edgeStyle=orthogonalEdgeStyle;rounded=0;orthogonalLoop=1;jettySize=auto;html=1;" parent="WIyWlLk6GJQsqaUBKTNV-1" source="MfrIPXdbmn4lJZThsnk2-17" edge="1">
          <mxGeometry relative="1" as="geometry">
            <mxPoint x="230" y="690" as="targetPoint" />
            <Array as="points">
              <mxPoint x="340" y="790" />
              <mxPoint x="340" y="690" />
            </Array>
          </mxGeometry>
        </mxCell>
        <mxCell id="MfrIPXdbmn4lJZThsnk2-25" value="" style="edgeStyle=orthogonalEdgeStyle;rounded=0;orthogonalLoop=1;jettySize=auto;html=1;" parent="WIyWlLk6GJQsqaUBKTNV-1" source="MfrIPXdbmn4lJZThsnk2-17" target="MfrIPXdbmn4lJZThsnk2-24" edge="1">
          <mxGeometry relative="1" as="geometry" />
        </mxCell>
        <mxCell id="MfrIPXdbmn4lJZThsnk2-17" value="&lt;div&gt;任务状态&lt;/div&gt;&lt;div&gt;&quot;完成&quot;？&lt;/div&gt;" style="rhombus;whiteSpace=wrap;html=1;shadow=0;fontFamily=Helvetica;fontSize=12;align=center;strokeWidth=1;spacing=6;spacingTop=-4;" parent="WIyWlLk6GJQsqaUBKTNV-1" vertex="1">
          <mxGeometry x="110" y="750" width="100" height="80" as="geometry" />
        </mxCell>
        <mxCell id="MfrIPXdbmn4lJZThsnk2-15" value="&lt;div&gt;查询创建任务状态，更新弹窗信息&lt;/div&gt;" style="rounded=1;whiteSpace=wrap;html=1;fontSize=12;glass=0;strokeWidth=1;shadow=0;" parent="WIyWlLk6GJQsqaUBKTNV-1" vertex="1">
          <mxGeometry x="100" y="670" width="120" height="40" as="geometry" />
        </mxCell>
        <mxCell id="MfrIPXdbmn4lJZThsnk2-19" value="" style="edgeStyle=orthogonalEdgeStyle;rounded=0;orthogonalLoop=1;jettySize=auto;html=1;" parent="WIyWlLk6GJQsqaUBKTNV-1" source="MfrIPXdbmn4lJZThsnk2-7" target="MfrIPXdbmn4lJZThsnk2-15" edge="1">
          <mxGeometry relative="1" as="geometry">
            <mxPoint x="160" y="645" as="sourcePoint" />
            <mxPoint x="160" y="750" as="targetPoint" />
          </mxGeometry>
        </mxCell>
        <mxCell id="MfrIPXdbmn4lJZThsnk2-22" value="No" style="text;html=1;align=center;verticalAlign=middle;resizable=0;points=[];autosize=1;" parent="WIyWlLk6GJQsqaUBKTNV-1" vertex="1">
          <mxGeometry x="245" y="770" width="30" height="20" as="geometry" />
        </mxCell>
        <mxCell id="MfrIPXdbmn4lJZThsnk2-23" value="提示原因" style="rounded=1;whiteSpace=wrap;html=1;fontSize=12;glass=0;strokeWidth=1;shadow=0;" parent="WIyWlLk6GJQsqaUBKTNV-1" vertex="1">
          <mxGeometry x="275" y="870" width="120" height="40" as="geometry" />
        </mxCell>
        <mxCell id="MfrIPXdbmn4lJZThsnk2-26" value="" style="edgeStyle=orthogonalEdgeStyle;rounded=0;orthogonalLoop=1;jettySize=auto;html=1;" parent="WIyWlLk6GJQsqaUBKTNV-1" source="MfrIPXdbmn4lJZThsnk2-24" target="MfrIPXdbmn4lJZThsnk2-23" edge="1">
          <mxGeometry relative="1" as="geometry" />
        </mxCell>
        <mxCell id="MfrIPXdbmn4lJZThsnk2-30" value="" style="edgeStyle=orthogonalEdgeStyle;rounded=0;orthogonalLoop=1;jettySize=auto;html=1;" parent="WIyWlLk6GJQsqaUBKTNV-1" source="MfrIPXdbmn4lJZThsnk2-24" target="MfrIPXdbmn4lJZThsnk2-29" edge="1">
          <mxGeometry relative="1" as="geometry" />
        </mxCell>
        <mxCell id="MfrIPXdbmn4lJZThsnk2-24" value="&lt;div&gt;任务状态&lt;/div&gt;&lt;div&gt;&quot;成功&quot;？&lt;/div&gt;" style="rhombus;whiteSpace=wrap;html=1;shadow=0;fontFamily=Helvetica;fontSize=12;align=center;strokeWidth=1;spacing=6;spacingTop=-4;" parent="WIyWlLk6GJQsqaUBKTNV-1" vertex="1">
          <mxGeometry x="110" y="850" width="100" height="80" as="geometry" />
        </mxCell>
        <mxCell id="MfrIPXdbmn4lJZThsnk2-27" value="No" style="text;html=1;align=center;verticalAlign=middle;resizable=0;points=[];autosize=1;" parent="WIyWlLk6GJQsqaUBKTNV-1" vertex="1">
          <mxGeometry x="220" y="870" width="30" height="20" as="geometry" />
        </mxCell>
        <mxCell id="kn0ChKgxOiVqOfrs6QLK-49" value="" style="edgeStyle=orthogonalEdgeStyle;rounded=0;orthogonalLoop=1;jettySize=auto;html=1;" edge="1" parent="WIyWlLk6GJQsqaUBKTNV-1" source="MfrIPXdbmn4lJZThsnk2-29">
          <mxGeometry relative="1" as="geometry">
            <mxPoint x="160" y="1040" as="targetPoint" />
          </mxGeometry>
        </mxCell>
        <mxCell id="MfrIPXdbmn4lJZThsnk2-29" value="创建成功弹窗" style="rounded=1;whiteSpace=wrap;html=1;fontSize=12;glass=0;strokeWidth=1;shadow=0;" parent="WIyWlLk6GJQsqaUBKTNV-1" vertex="1">
          <mxGeometry x="100" y="970" width="120" height="40" as="geometry" />
        </mxCell>
        <mxCell id="MfrIPXdbmn4lJZThsnk2-39" value="" style="endArrow=classic;html=1;exitX=0.5;exitY=1;exitDx=0;exitDy=0;entryX=0.5;entryY=0;entryDx=0;entryDy=0;" parent="WIyWlLk6GJQsqaUBKTNV-1" source="WIyWlLk6GJQsqaUBKTNV-6" target="MfrIPXdbmn4lJZThsnk2-1" edge="1">
          <mxGeometry width="50" height="50" relative="1" as="geometry">
            <mxPoint x="180" y="340" as="sourcePoint" />
            <mxPoint x="230" y="290" as="targetPoint" />
          </mxGeometry>
        </mxCell>
        <mxCell id="kn0ChKgxOiVqOfrs6QLK-0" value="&lt;div&gt;消息体包含:&lt;/div&gt;&lt;div&gt;1. 订单信息&lt;/div&gt;&lt;div&gt;2. 图纸信息&lt;br&gt;&lt;/div&gt;" style="shape=note;whiteSpace=wrap;html=1;backgroundOutline=1;darkOpacity=0.05;fillColor=#f5f5f5;strokeColor=#666666;fontColor=#333333;" vertex="1" parent="WIyWlLk6GJQsqaUBKTNV-1">
          <mxGeometry x="10" y="370" width="80" height="100" as="geometry" />
        </mxCell>
        <mxCell id="kn0ChKgxOiVqOfrs6QLK-1" value="&lt;div&gt;供应链端&lt;br&gt;&lt;/div&gt;" style="shape=note;whiteSpace=wrap;html=1;backgroundOutline=1;darkOpacity=0.05;fillColor=#fff2cc;strokeColor=#d6b656;" vertex="1" parent="WIyWlLk6GJQsqaUBKTNV-1">
          <mxGeometry x="10" y="140" width="80" height="100" as="geometry" />
        </mxCell>
        <mxCell id="kn0ChKgxOiVqOfrs6QLK-2" value="Local DNC 端" style="shape=note;whiteSpace=wrap;html=1;backgroundOutline=1;darkOpacity=0.05;fillColor=#fff2cc;strokeColor=#d6b656;" vertex="1" parent="WIyWlLk6GJQsqaUBKTNV-1">
          <mxGeometry x="730" y="330" width="80" height="100" as="geometry" />
        </mxCell>
        <mxCell id="kn0ChKgxOiVqOfrs6QLK-20" value="" style="edgeStyle=orthogonalEdgeStyle;rounded=0;orthogonalLoop=1;jettySize=auto;html=1;" edge="1" parent="WIyWlLk6GJQsqaUBKTNV-1" source="kn0ChKgxOiVqOfrs6QLK-4" target="kn0ChKgxOiVqOfrs6QLK-6">
          <mxGeometry relative="1" as="geometry" />
        </mxCell>
        <mxCell id="kn0ChKgxOiVqOfrs6QLK-4" value="收到rabbitMQ消息" style="rounded=1;whiteSpace=wrap;html=1;fontSize=12;glass=0;strokeWidth=1;shadow=0;" vertex="1" parent="WIyWlLk6GJQsqaUBKTNV-1">
          <mxGeometry x="580" y="410" width="120" height="40" as="geometry" />
        </mxCell>
        <mxCell id="kn0ChKgxOiVqOfrs6QLK-5" value="" style="endArrow=none;dashed=1;html=1;exitX=1;exitY=0.5;exitDx=0;exitDy=0;" edge="1" parent="WIyWlLk6GJQsqaUBKTNV-1" source="MfrIPXdbmn4lJZThsnk2-9" target="kn0ChKgxOiVqOfrs6QLK-4">
          <mxGeometry width="50" height="50" relative="1" as="geometry">
            <mxPoint x="360" y="450" as="sourcePoint" />
            <mxPoint x="410" y="400" as="targetPoint" />
          </mxGeometry>
        </mxCell>
        <mxCell id="kn0ChKgxOiVqOfrs6QLK-6" value="解析消息体" style="rounded=1;whiteSpace=wrap;html=1;fontSize=12;glass=0;strokeWidth=1;shadow=0;" vertex="1" parent="WIyWlLk6GJQsqaUBKTNV-1">
          <mxGeometry x="580" y="490" width="120" height="40" as="geometry" />
        </mxCell>
        <mxCell id="kn0ChKgxOiVqOfrs6QLK-23" value="" style="edgeStyle=orthogonalEdgeStyle;rounded=0;orthogonalLoop=1;jettySize=auto;html=1;" edge="1" parent="WIyWlLk6GJQsqaUBKTNV-1" source="kn0ChKgxOiVqOfrs6QLK-7" target="kn0ChKgxOiVqOfrs6QLK-8">
          <mxGeometry relative="1" as="geometry" />
        </mxCell>
        <mxCell id="kn0ChKgxOiVqOfrs6QLK-7" value="POST 到 ERP 创建外发订单" style="rounded=1;whiteSpace=wrap;html=1;fontSize=12;glass=0;strokeWidth=1;shadow=0;" vertex="1" parent="WIyWlLk6GJQsqaUBKTNV-1">
          <mxGeometry x="580" y="565" width="120" height="40" as="geometry" />
        </mxCell>
        <mxCell id="kn0ChKgxOiVqOfrs6QLK-39" value="" style="edgeStyle=orthogonalEdgeStyle;rounded=0;orthogonalLoop=1;jettySize=auto;html=1;exitX=1;exitY=0.5;exitDx=0;exitDy=0;" edge="1" parent="WIyWlLk6GJQsqaUBKTNV-1" source="kn0ChKgxOiVqOfrs6QLK-8">
          <mxGeometry relative="1" as="geometry">
            <mxPoint x="820" y="710" as="targetPoint" />
            <Array as="points">
              <mxPoint x="820" y="670" />
            </Array>
          </mxGeometry>
        </mxCell>
        <mxCell id="kn0ChKgxOiVqOfrs6QLK-8" value="创建成功？" style="rhombus;whiteSpace=wrap;html=1;shadow=0;fontFamily=Helvetica;fontSize=12;align=center;strokeWidth=1;spacing=6;spacingTop=-4;" vertex="1" parent="WIyWlLk6GJQsqaUBKTNV-1">
          <mxGeometry x="590" y="630" width="100" height="80" as="geometry" />
        </mxCell>
        <mxCell id="kn0ChKgxOiVqOfrs6QLK-9" value="从FTP获取图纸,并上传到供应链" style="rounded=1;whiteSpace=wrap;html=1;fontSize=12;glass=0;strokeWidth=1;shadow=0;" vertex="1" parent="WIyWlLk6GJQsqaUBKTNV-1">
          <mxGeometry x="580" y="840" width="120" height="40" as="geometry" />
        </mxCell>
        <mxCell id="kn0ChKgxOiVqOfrs6QLK-54" value="" style="edgeStyle=orthogonalEdgeStyle;rounded=0;orthogonalLoop=1;jettySize=auto;html=1;" edge="1" parent="WIyWlLk6GJQsqaUBKTNV-1" source="kn0ChKgxOiVqOfrs6QLK-10">
          <mxGeometry relative="1" as="geometry">
            <mxPoint x="640" y="1170" as="targetPoint" />
          </mxGeometry>
        </mxCell>
        <mxCell id="kn0ChKgxOiVqOfrs6QLK-10" value="更新ERP blueprint 信息(encryp_info)" style="rounded=1;whiteSpace=wrap;html=1;fontSize=12;glass=0;strokeWidth=1;shadow=0;" vertex="1" parent="WIyWlLk6GJQsqaUBKTNV-1">
          <mxGeometry x="580" y="1090" width="120" height="40" as="geometry" />
        </mxCell>
        <mxCell id="kn0ChKgxOiVqOfrs6QLK-32" value="" style="edgeStyle=orthogonalEdgeStyle;rounded=0;orthogonalLoop=1;jettySize=auto;html=1;" edge="1" parent="WIyWlLk6GJQsqaUBKTNV-1" source="kn0ChKgxOiVqOfrs6QLK-13" target="kn0ChKgxOiVqOfrs6QLK-14">
          <mxGeometry relative="1" as="geometry" />
        </mxCell>
        <mxCell id="kn0ChKgxOiVqOfrs6QLK-13" value="更新上传状态/进度" style="rounded=1;whiteSpace=wrap;html=1;fontSize=12;glass=0;strokeWidth=1;shadow=0;" vertex="1" parent="WIyWlLk6GJQsqaUBKTNV-1">
          <mxGeometry x="580" y="910" width="120" height="40" as="geometry" />
        </mxCell>
        <mxCell id="kn0ChKgxOiVqOfrs6QLK-34" value="" style="edgeStyle=orthogonalEdgeStyle;rounded=0;orthogonalLoop=1;jettySize=auto;html=1;" edge="1" parent="WIyWlLk6GJQsqaUBKTNV-1" source="kn0ChKgxOiVqOfrs6QLK-14">
          <mxGeometry relative="1" as="geometry">
            <mxPoint x="640" y="1090" as="targetPoint" />
          </mxGeometry>
        </mxCell>
        <mxCell id="kn0ChKgxOiVqOfrs6QLK-36" value="" style="edgeStyle=orthogonalEdgeStyle;rounded=0;orthogonalLoop=1;jettySize=auto;html=1;" edge="1" parent="WIyWlLk6GJQsqaUBKTNV-1" source="kn0ChKgxOiVqOfrs6QLK-14">
          <mxGeometry relative="1" as="geometry">
            <mxPoint x="820" y="1050" as="targetPoint" />
            <Array as="points">
              <mxPoint x="820" y="1010" />
            </Array>
          </mxGeometry>
        </mxCell>
        <mxCell id="kn0ChKgxOiVqOfrs6QLK-14" value="上传成功？" style="rhombus;whiteSpace=wrap;html=1;shadow=0;fontFamily=Helvetica;fontSize=12;align=center;strokeWidth=1;spacing=6;spacingTop=-4;" vertex="1" parent="WIyWlLk6GJQsqaUBKTNV-1">
          <mxGeometry x="590" y="970" width="100" height="80" as="geometry" />
        </mxCell>
        <mxCell id="kn0ChKgxOiVqOfrs6QLK-29" value="" style="endArrow=classic;html=1;" edge="1" parent="WIyWlLk6GJQsqaUBKTNV-1">
          <mxGeometry width="50" height="50" relative="1" as="geometry">
            <mxPoint x="639.5" y="530" as="sourcePoint" />
            <mxPoint x="639.5" y="570" as="targetPoint" />
          </mxGeometry>
        </mxCell>
        <mxCell id="kn0ChKgxOiVqOfrs6QLK-30" value="" style="endArrow=classic;html=1;" edge="1" parent="WIyWlLk6GJQsqaUBKTNV-1">
          <mxGeometry width="50" height="50" relative="1" as="geometry">
            <mxPoint x="639.5" y="710" as="sourcePoint" />
            <mxPoint x="639.5" y="750" as="targetPoint" />
          </mxGeometry>
        </mxCell>
        <mxCell id="kn0ChKgxOiVqOfrs6QLK-31" value="" style="endArrow=classic;html=1;" edge="1" parent="WIyWlLk6GJQsqaUBKTNV-1">
          <mxGeometry width="50" height="50" relative="1" as="geometry">
            <mxPoint x="640" y="880" as="sourcePoint" />
            <mxPoint x="639.5" y="910" as="targetPoint" />
          </mxGeometry>
        </mxCell>
        <mxCell id="kn0ChKgxOiVqOfrs6QLK-37" value="No" style="text;html=1;align=center;verticalAlign=middle;resizable=0;points=[];autosize=1;" vertex="1" parent="WIyWlLk6GJQsqaUBKTNV-1">
          <mxGeometry x="720" y="990" width="30" height="20" as="geometry" />
        </mxCell>
        <mxCell id="kn0ChKgxOiVqOfrs6QLK-40" value="No" style="text;html=1;align=center;verticalAlign=middle;resizable=0;points=[];autosize=1;" vertex="1" parent="WIyWlLk6GJQsqaUBKTNV-1">
          <mxGeometry x="710" y="645" width="30" height="20" as="geometry" />
        </mxCell>
        <mxCell id="kn0ChKgxOiVqOfrs6QLK-47" value="" style="edgeStyle=orthogonalEdgeStyle;rounded=0;orthogonalLoop=1;jettySize=auto;html=1;" edge="1" parent="WIyWlLk6GJQsqaUBKTNV-1" source="kn0ChKgxOiVqOfrs6QLK-41" target="kn0ChKgxOiVqOfrs6QLK-46">
          <mxGeometry relative="1" as="geometry" />
        </mxCell>
        <mxCell id="kn0ChKgxOiVqOfrs6QLK-41" value="更新供应链任务状态" style="rounded=1;whiteSpace=wrap;html=1;fontSize=12;glass=0;strokeWidth=1;shadow=0;" vertex="1" parent="WIyWlLk6GJQsqaUBKTNV-1">
          <mxGeometry x="760" y="710" width="120" height="40" as="geometry" />
        </mxCell>
        <mxCell id="kn0ChKgxOiVqOfrs6QLK-44" value="" style="edgeStyle=orthogonalEdgeStyle;rounded=0;orthogonalLoop=1;jettySize=auto;html=1;" edge="1" parent="WIyWlLk6GJQsqaUBKTNV-1" source="kn0ChKgxOiVqOfrs6QLK-42">
          <mxGeometry relative="1" as="geometry">
            <mxPoint x="640" y="840" as="targetPoint" />
          </mxGeometry>
        </mxCell>
        <mxCell id="kn0ChKgxOiVqOfrs6QLK-42" value="更新供应链任务状态" style="rounded=1;whiteSpace=wrap;html=1;fontSize=12;glass=0;strokeWidth=1;shadow=0;" vertex="1" parent="WIyWlLk6GJQsqaUBKTNV-1">
          <mxGeometry x="580" y="750" width="120" height="40" as="geometry" />
        </mxCell>
        <mxCell id="kn0ChKgxOiVqOfrs6QLK-45" value="&lt;div&gt;完成&lt;br&gt;&lt;/div&gt;" style="ellipse;whiteSpace=wrap;html=1;" vertex="1" parent="WIyWlLk6GJQsqaUBKTNV-1">
          <mxGeometry x="115" y="1040" width="90" height="40" as="geometry" />
        </mxCell>
        <mxCell id="kn0ChKgxOiVqOfrs6QLK-46" value="&lt;div&gt;完成&lt;br&gt;&lt;/div&gt;" style="ellipse;whiteSpace=wrap;html=1;" vertex="1" parent="WIyWlLk6GJQsqaUBKTNV-1">
          <mxGeometry x="775" y="790" width="90" height="40" as="geometry" />
        </mxCell>
        <mxCell id="kn0ChKgxOiVqOfrs6QLK-50" value="" style="edgeStyle=orthogonalEdgeStyle;rounded=0;orthogonalLoop=1;jettySize=auto;html=1;" edge="1" parent="WIyWlLk6GJQsqaUBKTNV-1" source="kn0ChKgxOiVqOfrs6QLK-51" target="kn0ChKgxOiVqOfrs6QLK-52">
          <mxGeometry relative="1" as="geometry" />
        </mxCell>
        <mxCell id="kn0ChKgxOiVqOfrs6QLK-51" value="更新供应链任务状态" style="rounded=1;whiteSpace=wrap;html=1;fontSize=12;glass=0;strokeWidth=1;shadow=0;" vertex="1" parent="WIyWlLk6GJQsqaUBKTNV-1">
          <mxGeometry x="760" y="1049" width="120" height="40" as="geometry" />
        </mxCell>
        <mxCell id="kn0ChKgxOiVqOfrs6QLK-52" value="&lt;div&gt;完成&lt;br&gt;&lt;/div&gt;" style="ellipse;whiteSpace=wrap;html=1;" vertex="1" parent="WIyWlLk6GJQsqaUBKTNV-1">
          <mxGeometry x="775" y="1129" width="90" height="40" as="geometry" />
        </mxCell>
        <mxCell id="kn0ChKgxOiVqOfrs6QLK-55" value="&lt;div&gt;完成&lt;br&gt;&lt;/div&gt;" style="ellipse;whiteSpace=wrap;html=1;" vertex="1" parent="WIyWlLk6GJQsqaUBKTNV-1">
          <mxGeometry x="595" y="1169" width="90" height="40" as="geometry" />
        </mxCell>
      </root>
    </mxGraphModel>
  </diagram>
</mxfile>
